<svg xmlns="http://www.w3.org/2000/svg" width="1200" height="850" viewBox="0 0 1200 850"><rect x="0" y="0" width="1200" height="850" rx="0" fill="#f0f2eb" stroke="none"/><rect x="0" y="0" width="1200" height="40" rx="0" fill="#e1e6e2" stroke="none"/><circle cx="20" cy="20" r="4" fill="#8f9987"/><circle cx="34" cy="20" r="4" fill="#8f9987"/><circle cx="48" cy="20" r="4" fill="#8f9987"/><text x="470" y="25" font-family="Arial, sans-serif" font-size="11" font-weight="400" fill="#63705a">alva / estudo de interface</text><text x="59" y="111" font-family="Georgia, serif" font-size="40" font-weight="400" fill="#42544f">alva</text><text x="151" y="104" font-family="Arial, sans-serif" font-size="9" font-weight="400" fill="#657871">ODONTOLOGIA</text><text x="601" y="103" font-family="Arial, sans-serif" font-size="13" font-weight="400" fill="#66766f">A clínica</text><text x="717" y="103" font-family="Arial, sans-serif" font-size="13" font-weight="400" fill="#66766f">Especialidades</text><text x="875" y="103" font-family="Arial, sans-serif" font-size="13" font-weight="400" fill="#66766f">Nossa equipe</text><rect x="1022" y="78" width="128" height="43" rx="2" fill="#587069" stroke="none"/><text x="1055" y="105" font-family="Arial, sans-serif" font-size="12" font-weight="400" fill="#f1f4ef">Agendar ↗</text><text x="60" y="229" font-family="Arial, sans-serif" font-size="11" font-weight="400" fill="#778780">CUIDADO QUE VOCÊ SENTE.</text><text x="58" y="319" font-family="Georgia, serif" font-size="74" font-weight="400" fill="#40564d">Seu sorriso,</text><text x="58" y="406" font-family="Georgia, serif" font-size="74" font-weight="400" fill="#40564d">em boas mãos.</text><text x="64" y="468" font-family="Arial, sans-serif" font-size="17" font-weight="400" fill="#74817a">Acolhimento, atenção e uma odontologia</text><text x="64" y="497" font-family="Arial, sans-serif" font-size="17" font-weight="400" fill="#74817a">pensada para cada fase da sua vida.</text><rect x="65" y="540" width="228" height="52" rx="2" fill="#587069" stroke="none"/><text x="92" y="573" font-family="Arial, sans-serif" font-size="14" font-weight="400" fill="#f1f4ef">Conheça nosso cuidado  ↗</text><rect x="754" y="180" width="381" height="444" rx="170" fill="#d9dfd7" stroke="none"/><rect x="805" y="235" width="280" height="389" rx="140" fill="#edf0e8" stroke="none"/><rect x="856" y="288" width="177" height="336" rx="90" fill="#b8c6bb" stroke="none"/><rect x="897" y="337" width="95" height="287" rx="47" fill="#607d71" stroke="none"/><path d="M745 624H1145L1200 699H670Z" fill="#cad4c9"/><path d="M60 709H1140" stroke="#c9d3ca"/><text x="65" y="766" font-family="Georgia, serif" font-size="31" font-weight="400" fill="#42584c">Atenção em cada etapa.</text><text x="745" y="766" font-family="Arial, sans-serif" font-size="11" font-weight="400" fill="#6b8175">PREVENÇÃO   /   ESTÉTICA   /   REABILITAÇÃO</text><text x="65" y="802" font-family="Arial, sans-serif" font-size="14" font-weight="400" fill="#7b8a80">Uma experiência tranquila, desde o primeiro contato.</text></svg>