<svg xmlns="http://www.w3.org/2000/svg" width="1200" height="850" viewBox="0 0 1200 850"><rect x="0" y="0" width="1200" height="850" rx="0" fill="#e7ebdc" stroke="none"/><text x="50" y="75" font-family="Arial, sans-serif" font-size="13" font-weight="400" fill="#4d603f">DETALHE / EXPERIÊNCIA COMPACTA</text><rect x="341" y="40" width="519" height="775" rx="40" fill="#1b251e" stroke="none"/><rect x="357" y="57" width="487" height="741" rx="29" fill="#e7ebdc" stroke="none"/><rect x="499" y="65" width="200" height="19" rx="10" fill="#1b251e" stroke="none"/><text x="388" y="115" font-family="Arial, sans-serif" font-size="21" font-weight="500" fill="#4d603f">essência</text><text x="786" y="112" font-family="Arial, sans-serif" font-size="25" font-weight="400" fill="#4d603f">≡</text><text x="389" y="184" font-family="Arial, sans-serif" font-size="39" font-weight="500" fill="#4d603f">Cuidado que</text><text x="389" y="232" font-family="Arial, sans-serif" font-size="39" font-weight="500" fill="#4d603f">cabe na rotina.</text><rect x="391" y="270" width="418" height="234" rx="8" fill="#d0d9bf" stroke="none"/><g transform="translate(524 272) scale(0.55)"><path d="M12 390Q170 150 255 5" stroke="#687955" stroke-width="4" fill="none"/><g transform="translate(60 295) rotate(-30)"><path d="M0 0Q-116 -8 -85 -94Q-20 -107 0 0" fill="#4e6747"/><path d="M0 0Q91 28 107 -54Q40 -88 0 0" fill="#657d56"/><path d="M-80 -83L0 0L91 -45" stroke="#becaa4" stroke-width="1" fill="none"/></g><g transform="translate(104 237) rotate(20)"><path d="M0 0Q-116 -8 -85 -94Q-20 -107 0 0" fill="#718064"/><path d="M0 0Q91 28 107 -54Q40 -88 0 0" fill="#879475"/><path d="M-80 -83L0 0L91 -45" stroke="#becaa4" stroke-width="1" fill="none"/></g><g transform="translate(149 165) rotate(-28)"><path d="M0 0Q-116 -8 -85 -94Q-20 -107 0 0" fill="#4e6747"/><path d="M0 0Q91 28 107 -54Q40 -88 0 0" fill="#657d56"/><path d="M-80 -83L0 0L91 -45" stroke="#becaa4" stroke-width="1" fill="none"/></g><g transform="translate(195 92) rotate(28)"><path d="M0 0Q-116 -8 -85 -94Q-20 -107 0 0" fill="#718064"/><path d="M0 0Q91 28 107 -54Q40 -88 0 0" fill="#879475"/><path d="M-80 -83L0 0L91 -45" stroke="#becaa4" stroke-width="1" fill="none"/></g><g transform="translate(225 30) rotate(-16)"><path d="M0 0Q-116 -8 -85 -94Q-20 -107 0 0" fill="#4e6747"/><path d="M0 0Q91 28 107 -54Q40 -88 0 0" fill="#657d56"/><path d="M-80 -83L0 0L91 -45" stroke="#becaa4" stroke-width="1" fill="none"/></g></g><text x="390" y="549" font-family="Arial, sans-serif" font-size="20" font-weight="500" fill="#4d603f">Sua jornada</text><path d="M391 569H808" stroke="#adbba4"/><text x="394" y="600" font-family="Arial, sans-serif" font-size="14" font-weight="400" fill="#4d603f">Escuta e acolhimento</text><text x="776" y="600" font-family="Arial, sans-serif" font-size="18" font-weight="400" fill="#4d603f">↗</text><path d="M391 617H808" stroke="#adbba4"/><text x="394" y="648" font-family="Arial, sans-serif" font-size="14" font-weight="400" fill="#4d603f">Acompanhamento próximo</text><text x="776" y="648" font-family="Arial, sans-serif" font-size="18" font-weight="400" fill="#4d603f">↗</text><rect x="390" y="688" width="421" height="53" rx="5" fill="#4d603f" stroke="none"/><text x="529" y="721" font-family="Arial, sans-serif" font-size="15" font-weight="400" fill="#f4f5eb">Conhecer mais  ↗</text><text x="62" y="780" font-family="Arial, sans-serif" font-size="11" font-weight="400" fill="#4d603f">COMPOSIÇÃO</text><text x="62" y="800" font-family="Arial, sans-serif" font-size="11" font-weight="400" fill="#4d603f">CONCEITUAL</text></svg>